<svg width="165" height="50" viewBox="0 0 165 50"  xmlns="http://www.w3.org/2000/svg">
<path d="M31.2328 21.1355V32.635H11.4511V25.7503H6.90039V37.2499H35.7835V21.1542H31.2328V21.1355Z" fill="#FFFFFF"/>
<path d="M35.7835 0.425003V16.5206H31.2328V5.02108H11.4511V16.5206H14.2001V7.79748H28.4838V12.3936H18.7508V16.5206H28.4838V21.1355H18.7508V25.2626H28.4838V29.8586H14.2001V21.1355H6.90039V0.425003H35.7835Z" fill="#FFFFFF"/>
<path d="M27.7223 38.3567C25.8463 38.3567 24.3789 38.3567 24.3789 38.3567L35.7836 49.875V38.3567C35.7836 38.3567 31.0843 38.3567 27.7223 38.3567Z" fill="#FFFFFF"/>
<path d="M58.4395 32.5246H56.232C56.2037 31.7814 55.7225 31.4384 54.8169 31.4384C54.0244 31.4384 53.6282 31.6957 53.6282 32.2388C53.6282 32.4674 53.7414 32.6675 53.9395 32.7533C54.1093 32.839 54.7037 33.0105 55.6942 33.2678C56.6282 33.4965 57.3074 33.7537 57.7319 34.0395C58.4678 34.4969 58.8074 35.1543 58.8074 36.069C58.8074 37.0408 58.4112 37.8126 57.647 38.3557C56.9678 38.813 56.0904 39.0417 55.015 39.0417C53.6848 39.0417 52.6942 38.7273 51.9867 38.0699C51.3641 37.4982 51.0527 36.755 51.0527 35.7832H53.3735C53.4301 36.7264 53.9961 37.2123 55.0999 37.2123C56.0055 37.2123 56.4584 36.8979 56.4584 36.2977C56.4584 36.0118 56.3452 35.8117 56.1187 35.6688C55.8923 35.5259 55.298 35.3258 54.364 35.0686C53.232 34.7541 52.4678 34.4111 52.0999 34.0681C51.6471 33.668 51.4207 33.1249 51.4207 32.3817C51.4207 31.4956 51.7886 30.8096 52.4961 30.2951C53.1188 29.8663 53.9395 29.6376 54.9301 29.6376C56.1187 29.6376 56.9961 29.9235 57.6187 30.4951C58.1565 30.9811 58.4395 31.6671 58.4395 32.5246Z" fill="#FFFFFF"/>
<path d="M65.9389 32.296L63.6181 38.8417C63.3068 39.7278 62.9389 40.328 62.571 40.6139C62.203 40.8997 61.5804 41.0426 60.7313 41.0426C60.2785 41.0426 59.7691 40.9854 59.1747 40.8997L59.5144 39.2132C59.6842 39.2704 59.9389 39.299 60.2219 39.299C60.6747 39.299 60.9578 39.2132 61.0993 39.0132C61.2408 38.8131 61.2974 38.613 61.2974 38.3843C61.2974 38.3271 61.2974 38.27 61.2691 38.2128L59.0898 32.296H61.3257L62.203 35.1543C62.3162 35.5259 62.4294 36.0119 62.5427 36.6693C62.7125 35.9261 62.8257 35.4116 62.9389 35.0972L63.7879 32.296H65.9389Z" fill="#FFFFFF"/>
<path d="M72.0809 34.1253H70.1281C70.0998 33.868 69.9866 33.6965 69.8451 33.5822C69.6753 33.4678 69.4206 33.4393 69.0526 33.4393C68.4866 33.4393 68.2036 33.6108 68.2036 33.9538C68.2036 34.1253 68.2885 34.2682 68.4583 34.3539C68.6281 34.4397 69.0526 34.554 69.6753 34.6684C70.6092 34.8399 71.2602 35.0971 71.6281 35.4115C71.996 35.726 72.1941 36.1547 72.1941 36.7264C72.1941 37.4696 71.8828 38.0412 71.2602 38.4414C70.7225 38.7844 69.9866 38.9559 69.1093 38.9559C67.9772 38.9559 67.1281 38.6987 66.5904 38.1556C66.3357 37.8983 66.1659 37.6697 66.081 37.5267C65.9961 37.3838 65.9395 37.1266 65.9395 36.7836H68.0338C68.0621 37.0694 68.1753 37.2981 68.3451 37.4124C68.5149 37.5267 68.7979 37.5839 69.1942 37.5839C69.8451 37.5839 70.1847 37.3552 70.1847 36.9265C70.1847 36.7264 70.0998 36.5835 69.9583 36.4977C69.7885 36.412 69.4206 36.2976 68.8545 36.1547C67.9489 35.9546 67.3262 35.7545 66.9866 35.583C66.4489 35.2972 66.1942 34.8113 66.1942 34.1253C66.1942 33.4678 66.4489 32.9819 66.9583 32.6389C67.4677 32.2959 68.2036 32.1244 69.1376 32.1244C70.2979 32.1244 71.1187 32.4102 71.6281 32.9533C71.8828 33.2963 72.0526 33.6679 72.0809 34.1253Z" fill="#FFFFFF"/>
<path d="M77.1747 32.2959V33.6965H75.6747V36.3548C75.6747 36.9551 75.9294 37.2409 76.4671 37.2409C76.7784 37.2409 77.0331 37.1838 77.203 37.0408L77.5709 38.5558C77.1747 38.7273 76.5803 38.813 75.8162 38.813C74.8539 38.813 74.2313 38.6129 73.8917 38.1842C73.7501 38.0127 73.6652 37.8126 73.6086 37.5839C73.5803 37.3553 73.552 37.0123 73.552 36.4977V33.6394H72.4766V32.2388H73.552V30.8667L75.6464 29.752V32.2388H77.1747V32.2959Z" fill="#FFFFFF"/>
<path d="M84.3071 36.7836C84.2222 37.1552 84.0241 37.5268 83.7411 37.8412C83.1184 38.5844 82.2411 38.9274 81.109 38.9274C80.0902 38.9274 79.2694 38.6415 78.6468 38.0699C77.9392 37.441 77.5996 36.6121 77.5996 35.5545C77.5996 34.4683 77.9675 33.5822 78.6751 32.9248C79.2977 32.3531 80.0902 32.0673 81.0241 32.0673C82.1562 32.0673 83.0335 32.4388 83.6279 33.182C84.1656 33.8395 84.4203 34.697 84.4203 35.7546C84.4203 35.8403 84.4203 35.8975 84.4203 35.9547H79.6373C79.6656 36.412 79.7788 36.7836 80.0336 37.0408C80.2883 37.2981 80.6279 37.441 81.0807 37.441C81.6185 37.441 82.0147 37.2123 82.2977 36.7264H84.3071V36.7836ZM82.3826 34.8113C82.2694 33.9824 81.8449 33.5536 81.0524 33.5536C80.26 33.5536 79.8071 33.9824 79.6939 34.8113H82.3826Z" fill="#FFFFFF"/>
<path d="M87.5329 32.2959V33.1534C88.014 32.4674 88.6649 32.1244 89.514 32.1244C90.363 32.1244 90.9574 32.4674 91.3253 33.1534C91.8347 32.4674 92.514 32.1244 93.363 32.1244C94.0989 32.1244 94.6649 32.3531 95.0894 32.8104C95.4291 33.2392 95.5989 33.7823 95.5989 34.4683V38.7844H93.5045V35.0114C93.5045 34.2396 93.2215 33.8394 92.6272 33.8394C92.2309 33.8394 91.9479 34.0109 91.7498 34.3254C91.6649 34.4969 91.6083 34.7827 91.6083 35.1829V38.7844H89.514V34.9256C89.514 34.211 89.231 33.8394 88.6649 33.8394C87.9857 33.8394 87.6178 34.2968 87.6178 35.2115V38.7844H85.5234V32.2959H87.5329Z" fill="#FFFFFF"/>
<path d="M102.505 34.1253H100.552C100.524 33.868 100.41 33.6965 100.269 33.5822C100.099 33.4678 99.8444 33.4393 99.4765 33.4393C98.9104 33.4393 98.6274 33.6108 98.6274 33.9538C98.6274 34.1253 98.7123 34.2682 98.8821 34.3539C99.0519 34.4397 99.4765 34.554 100.099 34.6684C101.033 34.8399 101.684 35.0971 102.052 35.4115C102.42 35.726 102.618 36.1547 102.618 36.7264C102.618 37.4696 102.307 38.0412 101.684 38.4414C101.146 38.7844 100.41 38.9559 99.5331 38.9559C98.401 38.9559 97.552 38.6987 97.0142 38.1556C96.7595 37.8983 96.5897 37.6697 96.5048 37.5267C96.4199 37.3838 96.3633 37.1266 96.3633 36.7836H98.4293C98.4576 37.0694 98.5708 37.2981 98.7406 37.4124C98.9104 37.5267 99.1935 37.5839 99.5897 37.5839C100.241 37.5839 100.58 37.3552 100.58 36.9265C100.58 36.7264 100.495 36.5835 100.354 36.4977C100.184 36.412 99.8161 36.2976 99.2501 36.1547C98.3444 35.9546 97.7218 35.7545 97.3821 35.583C96.8444 35.2972 96.5897 34.8113 96.5897 34.1253C96.5897 33.4678 96.8444 32.9819 97.3538 32.6389C97.8633 32.2959 98.5991 32.1244 99.5331 32.1244C100.693 32.1244 101.514 32.4102 102.024 32.9533C102.307 33.2963 102.476 33.6679 102.505 34.1253Z" fill="#FFFFFF"/>
<path d="M113.175 29.8378V31.7529H108.392V33.2392H112.751V35.0686H108.392V36.8408H113.288V38.7559H106.1V29.8092H113.175V29.8378Z" fill="#FFFFFF"/>
<path d="M120.166 32.296L118.128 35.3544L120.42 38.7845H118.128L117.449 37.6983C117.364 37.5554 117.222 37.2695 117.052 36.8122C116.883 37.1838 116.741 37.4696 116.571 37.6983L115.92 38.7845H113.6L115.864 35.3544L113.826 32.296H116.147L116.628 33.0963C116.713 33.2106 116.826 33.4679 117.024 33.8967C117.251 33.4679 117.392 33.1821 117.477 33.0391L117.93 32.296H120.166Z" fill="#FFFFFF"/>
<path d="M122.995 32.2959V33.0677C123.448 32.4388 124.07 32.1244 124.863 32.1244C125.768 32.1244 126.476 32.496 126.985 33.2106C127.438 33.8394 127.665 34.6398 127.665 35.583C127.665 36.6692 127.382 37.5267 126.815 38.1556C126.334 38.6987 125.712 38.9559 124.948 38.9559C124.155 38.9559 123.532 38.6415 123.08 38.0412V40.9854H120.957V32.3245H122.995V32.2959ZM124.268 33.868C123.872 33.868 123.561 34.0109 123.334 34.3254C123.108 34.6398 122.995 35.0685 122.995 35.6116C122.995 36.1547 123.108 36.5835 123.334 36.8693C123.561 37.1551 123.872 37.3267 124.268 37.3267C125.117 37.3267 125.542 36.755 125.542 35.6116C125.542 34.4397 125.117 33.868 124.268 33.868Z" fill="#FFFFFF"/>
<path d="M135.108 36.7836C135.023 37.1552 134.825 37.5268 134.542 37.8412C133.919 38.5844 133.042 38.9274 131.91 38.9274C130.891 38.9274 130.07 38.6415 129.448 38.0699C128.74 37.441 128.4 36.6121 128.4 35.5545C128.4 34.4683 128.768 33.5822 129.476 32.9248C130.099 32.3531 130.891 32.0673 131.825 32.0673C132.957 32.0673 133.834 32.4388 134.429 33.182C134.966 33.8395 135.221 34.697 135.221 35.7546C135.221 35.8403 135.221 35.8975 135.221 35.9547H130.438C130.466 36.412 130.58 36.7836 130.834 37.0408C131.089 37.2981 131.429 37.441 131.882 37.441C132.419 37.441 132.815 37.2123 133.098 36.7264H135.108V36.7836ZM133.183 34.8113C133.07 33.9824 132.646 33.5536 131.853 33.5536C131.061 33.5536 130.608 33.9824 130.495 34.8113H133.183Z" fill="#FFFFFF"/>
<path d="M140.911 32.2673V34.0109C140.6 33.9252 140.317 33.868 140.034 33.868C138.958 33.868 138.421 34.554 138.421 35.9546V38.7844H136.326V32.2959H138.364V33.4107C138.619 32.5532 139.298 32.1244 140.43 32.1244C140.543 32.1244 140.713 32.1816 140.911 32.2673Z" fill="#FFFFFF"/>
<path d="M145.609 32.2959V33.6965H144.081V36.3548C144.081 36.9551 144.336 37.2409 144.873 37.2409C145.185 37.2409 145.439 37.1838 145.609 37.0408L145.977 38.5558C145.581 38.7273 144.987 38.813 144.222 38.813C143.26 38.813 142.638 38.6129 142.298 38.1842C142.156 38.0127 142.071 37.8126 142.015 37.5839C141.987 37.3553 141.958 37.0123 141.958 36.4977V33.6394H140.883V32.2388H141.958V30.8667L144.053 29.752V32.2388H145.609V32.2959Z" fill="#FFFFFF"/>
<path d="M151.891 34.1253H149.939C149.91 33.868 149.797 33.6965 149.656 33.5822C149.486 33.4678 149.231 33.4393 148.863 33.4393C148.297 33.4393 148.014 33.6108 148.014 33.9538C148.014 34.1253 148.099 34.2682 148.269 34.3539C148.439 34.4397 148.863 34.554 149.486 34.6684C150.42 34.8399 151.071 35.0971 151.439 35.4115C151.807 35.726 152.005 36.1547 152.005 36.7264C152.005 37.4696 151.693 38.0412 151.071 38.4414C150.533 38.7844 149.797 38.9559 148.92 38.9559C147.788 38.9559 146.939 38.6987 146.401 38.1556C146.146 37.8983 145.976 37.6697 145.892 37.5267C145.807 37.3838 145.75 37.1266 145.75 36.7836H147.816C147.844 37.0694 147.958 37.2981 148.127 37.4124C148.297 37.5267 148.58 37.5839 148.976 37.5839C149.627 37.5839 149.967 37.3552 149.967 36.9265C149.967 36.7264 149.882 36.5835 149.741 36.4977C149.571 36.412 149.203 36.2976 148.637 36.1547C147.731 35.9546 147.108 35.7545 146.769 35.583C146.231 35.2972 145.976 34.8113 145.976 34.1253C145.976 33.4678 146.231 32.9819 146.741 32.6389C147.25 32.2959 147.986 32.1244 148.92 32.1244C150.08 32.1244 150.901 32.4102 151.41 32.9533C151.693 33.2963 151.863 33.6679 151.891 34.1253Z" fill="#FFFFFF"/>
<path d="M71.2033 12.4587C71.5429 12.4587 71.8259 12.3444 72.0807 12.0872C72.3354 11.8299 72.4486 11.5441 72.4486 11.2296C72.4486 10.8866 72.3354 10.6008 72.0807 10.3435C71.8259 10.0863 71.5429 9.97195 71.2033 9.97195C70.8637 9.97195 70.5807 10.0863 70.3542 10.3435C70.0995 10.6008 69.9863 10.8866 69.9863 11.2296C69.9863 11.5726 70.0995 11.8585 70.3542 12.0872C70.5807 12.3444 70.8637 12.4587 71.2033 12.4587Z" fill="#FFFFFF"/>
<path d="M86.0041 12.4587C86.3437 12.4587 86.6267 12.3444 86.8814 12.0872C87.1362 11.8299 87.2494 11.5441 87.2494 11.2296C87.2494 10.8866 87.1362 10.6008 86.8814 10.3435C86.6267 10.0863 86.3437 9.97195 86.0041 9.97195C85.6645 9.97195 85.3814 10.0863 85.155 10.3435C84.9003 10.6008 84.7871 10.8866 84.7871 11.2296C84.7871 11.5726 84.9003 11.8585 85.155 12.0872C85.3814 12.3444 85.6645 12.4587 86.0041 12.4587Z" fill="#FFFFFF"/>
<path d="M91.4102 20.6052C91.4102 20.7195 91.3536 20.8338 91.2687 20.9196C91.1555 21.0339 91.0423 21.0625 90.9008 21.0625H88.1272H87.9857H87.1366V20.7767V14.2024H84.8442V20.548C84.8442 20.6909 84.7876 20.8338 84.6744 20.9196C84.5895 21.0339 84.4763 21.0625 84.3065 21.0625H81.5612H81.4197H78.165H78.0235H77.5423C77.5423 21.0053 77.5423 20.9196 77.5423 20.8052C77.5423 20.6623 77.5706 20.5766 77.5706 20.5194V18.69C77.5706 17.3752 77.1178 16.2604 76.2122 15.4029C75.2216 14.4311 73.9763 13.9451 72.448 13.9451C69.9575 13.9451 67.8631 15.1171 66.1367 17.4324V9.28596H63.8443V21.0911H60.533H60.3915H57.1368H56.9953H56.9387C56.8255 21.0911 56.7406 21.0339 56.6556 20.9482C56.5707 20.8624 56.5141 20.7481 56.5141 20.6052V17.5181C56.5141 16.3748 56.1462 15.4887 55.3821 14.8312C54.6745 14.231 53.7406 13.9451 52.6085 13.9451C51.4198 13.9451 50.4576 14.3167 49.6651 15.0313C48.7595 15.8602 48.2783 16.9464 48.2783 18.347C48.2783 19.4332 48.533 20.3479 49.0708 21.0911H48.7595C48.25 21.0911 47.7972 21.3198 47.3727 21.7771C47.0048 22.1773 46.8066 22.6632 46.8066 23.2063V41.0426H47.9387L49.1274 40.0993V23.5493C49.1274 23.2349 49.2972 23.0634 49.6085 23.0634H52.1274C52.7783 23.0634 53.3443 22.9776 53.7972 22.8347C54.1368 22.7489 54.4481 22.5774 54.7311 22.3488C54.9575 22.5774 55.184 22.7489 55.4104 22.8633C55.6651 22.9776 55.9481 23.0634 56.316 23.0634H57.0236H57.1651H60.3915H60.533H75.5046C76.1556 23.0634 76.6933 22.8061 77.1178 22.263H77.1744L77.7971 23.0634H78.0518H78.1933H81.448H81.5895H85.1272C85.7781 23.0634 86.3159 22.8061 86.7404 22.263H86.7687L87.4763 23.0634H88.014H88.1555H91.6932C92.3159 23.0634 92.8536 22.8061 93.2215 22.3202C93.5611 21.9486 93.7309 21.4627 93.7309 20.9482V9.28596H91.4385V20.6052H91.4102ZM54.2217 20.891C53.8255 21.0625 53.3726 21.1482 52.8915 21.1482C52.1557 21.1482 51.5896 20.9196 51.1934 20.4337C50.7972 19.9763 50.5708 19.3189 50.5708 18.49C50.5708 17.7182 50.7689 17.0893 51.1368 16.632C51.5047 16.1747 52.0142 15.9174 52.6651 15.9174C53.1462 15.9174 53.5142 16.0603 53.7972 16.3748C54.0802 16.6606 54.2217 17.0608 54.2217 17.5181V20.891ZM75.2216 20.6052C75.2216 20.9196 75.0518 21.0911 74.7405 21.0911H66.1367C66.9858 19.1188 68.0613 17.7182 69.3631 16.8607C70.2405 16.2604 71.1461 15.9746 72.0801 15.9746C72.8726 15.9746 73.5518 16.1747 74.1178 16.6034C74.8537 17.1179 75.2216 17.8611 75.2499 18.833V20.6052H75.2216Z" fill="#FFFFFF"/>
<path d="M96.3633 23.5493H97.4954L98.684 22.5774V9.28595H96.3633V23.5493Z" fill="#FFFFFF"/>
<path d="M109.75 20.9481C109.665 20.9481 109.608 20.9481 109.523 20.9481C108.844 20.9481 108.306 20.748 107.91 20.3193C107.514 19.8905 107.316 19.3188 107.316 18.6042C107.316 16.9464 108.108 16.1175 109.665 16.1175C109.976 16.1175 110.4 16.1746 110.938 16.2604V14.4024C110.287 14.2595 109.721 14.2023 109.268 14.2023C108.051 14.2023 107.061 14.5453 106.325 15.2028C105.448 15.9459 105.023 17.0607 105.023 18.4613C105.023 19.4046 105.25 20.2335 105.702 20.9767C105.957 21.4055 106.268 21.7485 106.608 21.9485C105.731 22.3487 105.051 22.7489 104.57 23.0919L105.646 24.8355C106.75 24.0923 107.882 23.5492 109.099 23.2062C110.146 22.9204 111.136 22.7775 112.042 22.7203L113.004 21.5198V20.7194C112.834 20.7194 112.636 20.6909 112.466 20.6909C111.787 20.6909 110.882 20.7766 109.75 20.9481Z" fill="#FFFFFF"/>
<path d="M117.023 9.28595H114.674V23.5493H115.834L117.023 22.5774V9.28595Z" fill="#FFFFFF"/>
<path d="M135.788 24.4639C135.449 24.4639 135.166 24.5783 134.911 24.8355C134.656 25.0928 134.543 25.3786 134.543 25.7216C134.543 26.0646 134.656 26.3505 134.911 26.6077C135.166 26.865 135.449 26.9793 135.788 26.9793C136.128 26.9793 136.411 26.865 136.637 26.6077C136.892 26.3505 137.005 26.0646 137.005 25.7216C137.005 25.3786 136.892 25.0928 136.637 24.8355C136.411 24.5783 136.128 24.4639 135.788 24.4639Z" fill="#FFFFFF"/>
<path d="M147.25 12.4587C147.59 12.4587 147.873 12.3444 148.128 12.0872C148.382 11.8299 148.495 11.5441 148.495 11.2296C148.495 10.8866 148.382 10.6008 148.128 10.3435C147.873 10.0863 147.59 9.97195 147.25 9.97195C146.911 9.97195 146.628 10.0863 146.401 10.3435C146.146 10.6008 146.033 10.8866 146.033 11.2296C146.033 11.5726 146.146 11.8585 146.401 12.0872C146.628 12.3444 146.911 12.4587 147.25 12.4587Z" fill="#FFFFFF"/>
<path d="M150.76 15.46C149.826 14.4882 148.581 14.0023 147.052 14.0023C146.118 14.0023 145.015 14.2023 143.769 14.5739V16.4319C144.986 16.1746 145.892 16.0317 146.486 16.0317C147.505 16.0317 148.298 16.289 148.864 16.8035C149.43 17.318 149.741 18.0326 149.741 18.9187V20.6623C149.741 20.9767 149.571 21.1482 149.26 21.1482H141.364H141.222H137.968H137.826H136.977V20.8624V14.2023H134.685V20.548C134.685 20.6909 134.628 20.8338 134.515 20.9195C134.43 21.0339 134.317 21.0625 134.147 21.0625H131.402H131.26H128.005H127.864H124.637H124.496H123.647V14.2023H121.326V22.3773C121.326 24.5783 120.194 25.693 117.958 25.693C117.59 25.693 117.194 25.6645 116.77 25.6073V26.4362L117.703 27.6082C117.958 27.6082 118.213 27.6367 118.439 27.6367C119.77 27.6367 120.902 27.2937 121.807 26.6077C122.911 25.7788 123.505 24.6069 123.619 23.0633H124.468H124.609H127.864H128.005H131.26H131.402H134.939C135.59 23.0633 136.128 22.8061 136.552 22.263H136.581L137.288 23.0633H137.826H137.968H141.222H141.364H149.996C150.59 23.0633 151.1 22.8347 151.524 22.3773C151.892 21.9486 152.062 21.4912 152.062 20.9481V18.7472C152.034 17.4323 151.609 16.3175 150.76 15.46Z" fill="#FFFFFF"/>
</svg>
